<?xml version="1.0" encoding="UTF-8"?>
<svg id="_レイヤー_1" data-name="レイヤー_1" xmlns="http://www.w3.org/2000/svg" xmlns:xlink="http://www.w3.org/1999/xlink" version="1.1" viewBox="0 0 512 512">
  <!-- Generator: Adobe Illustrator 30.1.0, SVG Export Plug-In . SVG Version: 2.1.1 Build 136)  -->
  <defs>
    <style>
      .st0 {
        fill: url(#_スペクトル_);
      }

      .st1 {
        fill: #333;
      }

      .st2 {
        fill: url(#_スペクトル_1);
      }

      .st3 {
        fill: url(#_スペクトル_2);
      }

      .st4 {
        fill: url(#_スペクトル_3);
      }

      .st5 {
        fill: url(#_スペクトル_4);
      }

      .st6 {
        fill: url(#_スペクトル_7);
      }

      .st7 {
        fill: url(#_スペクトル_9);
      }

      .st8 {
        fill: url(#_スペクトル_6);
      }

      .st9 {
        fill: url(#_スペクトル_8);
      }

      .st10 {
        fill: url(#_スペクトル_5);
      }
    </style>
    <linearGradient id="_スペクトル_" data-name="スペクトル " x1="266.04" y1="67.34" x2="266.04" y2="437.24" gradientUnits="userSpaceOnUse">
      <stop offset="0" stop-color="#00a0df"/>
      <stop offset=".2" stop-color="#232288"/>
      <stop offset=".4" stop-color="#e3007e"/>
      <stop offset=".6" stop-color="#e51f1f"/>
      <stop offset=".8" stop-color="#feed00"/>
      <stop offset="1" stop-color="#00974b"/>
    </linearGradient>
    <linearGradient id="_スペクトル_1" data-name="スペクトル " x1="238.42" y1="67.34" x2="238.42" y2="437.24" xlink:href="#_スペクトル_"/>
    <linearGradient id="_スペクトル_2" data-name="スペクトル " x1="208.93" y1="67.34" x2="208.93" y2="437.24" xlink:href="#_スペクトル_"/>
    <linearGradient id="_スペクトル_3" data-name="スペクトル " x1="181.9" y1="67.34" x2="181.9" y2="437.24" xlink:href="#_スペクトル_"/>
    <linearGradient id="_スペクトル_4" data-name="スペクトル " x1="153.99" y1="67.34" x2="153.99" y2="437.34" xlink:href="#_スペクトル_"/>
    <linearGradient id="_スペクトル_5" data-name="スペクトル " x1="125.14" y1="67.34" x2="125.14" y2="437.24" xlink:href="#_スペクトル_"/>
    <linearGradient id="_スペクトル_6" data-name="スペクトル " x1="97.21" y1="67.34" x2="97.21" y2="437.24" xlink:href="#_スペクトル_"/>
    <linearGradient id="_スペクトル_7" data-name="スペクトル " x1="69.57" y1="67.34" x2="69.57" y2="437.24" xlink:href="#_スペクトル_"/>
    <linearGradient id="_スペクトル_8" data-name="スペクトル " x1="41.97" y1="67.34" x2="41.97" y2="437.24" xlink:href="#_スペクトル_"/>
    <linearGradient id="_スペクトル_9" data-name="スペクトル " x1="14.92" y1="67.34" x2="14.92" y2="437.24" xlink:href="#_スペクトル_"/>
  </defs>
  <g id="_生成オブジェクト" data-name="生成オブジェクト">
    <g>
      <path class="st1" d="M261.58,135.67l71.8,103.69c1.14,1.65,2.78,2.4,4.3,2.46,1.44.06,2.57-.83,3.96-2.41l20.16-23.08c1.18-1.35,2.35-3.84.97-5.78l-54.3-75.69c-12.84-17.9-32.53-27.64-53.4-23.9-2.45.44-4.13,1.23-4.96,3.45-.6,1.6-.86,3.57.53,5.57l10.95,15.7Z"/>
      <path class="st1" d="M441.29,227.29c3.02.51,5.83-1.06,9.28-.8,21.27-3.41,41.48-21.17,45.33-42.95l.8-4.51c.65-3.7.49-7.33.02-11.17-1.8-14.83-9.51-28.56-22.16-37.85-26.81-19.68-64.78-9.89-78.87,19.08-12.09,24.86-1.98,43.39-1.87,46.34.05,1.42-.57,1.63-1.87,3-18.63,19.82-37.65,39.25-54.7,60.65l-98.87,124.11c-1.75,2.2-.75,4.61.08,6.56,2.07,4.89,20.62,3.82,25.3,2.92,14.11-2.72,25.6-12.05,34.99-23.66,40.29-49.78,80.77-97.93,122.18-146.62,6.96,2.87,13.54,3.74,20.35,4.89ZM371.88,261.27c-5.12.51-9.59-2.26-10.41-7.07-.51-2.98-.3-5.82,1.42-7.81,2.19-2.54,4.51-3.31,8.58-3.08,4.53.26,8.09,4.91,7.97,9.23-.11,3.97-3.87,8.36-7.55,8.72ZM412.21,180.06c-3.34-16.18,5.44-33.78,22.76-37.86,6.51-1.53,6.72-2.18,14.25-.81,10,1.82,18.14,8.35,22.74,17.36,5.27,10.33,4.37,23.28-2.83,32.82-7.04,9.33-17.9,14.29-29.94,12.65-13.23-1.81-24.22-10.79-26.98-24.16Z"/>
      <path class="st1" d="M459.23,284.83c-12.59-4.36-25.65-3.5-38.16.69l-19.8-18.3c-2.23-2.06-5.97.45-7.52,2.2l-14.37,16.15c-2.3,2.59-3.93,6.26-1.44,9.35l15.77,19.55c-5.96,15.27-5.58,31.43,1.51,45.8,8.63,17.48,25.74,27.6,44.83,29.49,3.26.32,10.51-.92,13.71-1.38,17.94-2.61,37.93-21.45,41.55-39l.66-3.22.76-3.88-.07-11.76c-.12-20.66-17.16-38.67-37.44-45.69ZM472.19,349.72c-6.81,12.68-19.35,19.18-33.47,17.47-18.41-2.23-29.01-18.01-27-35.04l.48-4.05c1.49-12.66,12.12-21.63,24.87-23.71,2.24-.37,5.04-.13,7.92-.15,11.79-.05,21.73,8.04,27.21,18.69,4.2,8.18,4.3,18.77,0,26.78Z"/>
    </g>
    <g>
      <path class="st0" d="M266.04,298.87c-4.48,0-8.11-3.63-8.11-8.11v-70.76c0-4.48,3.63-8.11,8.11-8.11s8.11,3.63,8.11,8.11v70.76c0,4.48-3.63,8.11-8.11,8.11Z"/>
      <path class="st2" d="M238.08,334.86h-.04c-4.48-.02-8.09-3.67-8.07-8.14l.67-144.62c.02-4.46,3.65-8.07,8.11-8.07h.04c4.48.02,8.09,3.67,8.07,8.14l-.67,144.62c-.02,4.46-3.65,8.07-8.11,8.07Z"/>
      <path class="st3" d="M208.93,359.07c-4.48,0-8.11-3.63-8.11-8.11v-189.31c0-4.48,3.63-8.11,8.11-8.11s8.11,3.63,8.11,8.11v189.31c0,4.48-3.63,8.11-8.11,8.11Z"/>
      <path class="st4" d="M181.93,401.28c-4.48,0-8.11-3.63-8.11-8.11l-.05-277.45c0-4.48,3.63-8.11,8.1-8.11,4.48,0,8.11,3.63,8.11,8.1l.05,277.45c0,4.48-3.63,8.11-8.1,8.11Z"/>
      <path class="st5" d="M153.96,441h0c-4.48,0-8.11-3.63-8.1-8.11l.06-353.79c0-4.48,3.63-8.1,8.11-8.1h0c4.48,0,8.11,3.63,8.1,8.11l-.06,353.79c0,4.48-3.63,8.1-8.11,8.1Z"/>
      <path class="st10" d="M125.14,385.76c-4.48,0-8.11-3.63-8.11-8.11V127.52c0-4.48,3.63-8.11,8.11-8.11s8.11,3.63,8.11,8.11v250.14c0,4.48-3.63,8.11-8.11,8.11Z"/>
      <path class="st8" d="M97.21,346.66c-4.48,0-8.11-3.63-8.11-8.11v-171.93c0-4.48,3.63-8.11,8.11-8.11s8.11,3.63,8.11,8.11v171.93c0,4.48-3.63,8.11-8.11,8.11Z"/>
      <path class="st6" d="M69.55,314.38h0c-4.48,0-8.1-3.63-8.1-8.11l.05-106.76c0-4.48,3.63-8.1,8.11-8.1h0c4.48,0,8.1,3.63,8.1,8.11l-.05,106.76c0,4.48-3.63,8.1-8.11,8.1Z"/>
      <path class="st9" d="M41.97,295.14c-4.48,0-8.11-3.63-8.11-8.11v-62.07c0-4.48,3.63-8.11,8.11-8.11s8.11,3.63,8.11,8.11v62.07c0,4.48-3.63,8.11-8.11,8.11Z"/>
      <path class="st7" d="M14.97,270.94c-4.45,0-8.07-3.59-8.1-8.04l-.11-14.27c-.04-4.48,3.57-8.13,8.04-8.17.02,0,.04,0,.07,0,4.45,0,8.07,3.59,8.1,8.04l.11,14.28c.04,4.48-3.57,8.13-8.04,8.17h-.07Z"/>
    </g>
  </g>
</svg>